PathFileType  4	(X/Y/Z) C:\Users\antoi\Documents\MyRepositories\mobilecap\ResultsAnalysis
DataRate	CameraRate	NumFrames	NumMarkers	Units	OrigDataRate	OrigDataStartFrame	OrigNumFrames
100.0	100.0	4	51	mm	100.0	1010	1346
Frame#	Time	r_knee			r_shank_antsup			r_ankle			r_calc			r_5meta			r_toe			L_knee			L_shank_antsup			L_ankle			L_calc			L_5meta			L_toe			r_sh2			r_sh3			r_sh4			L_sh2			L_sh3			r_thigh1			r_thigh2			r_thigh3			r_thigh4			r_thigh5			L_thigh1			L_thigh2			L_thigh3			L_thigh4			r.ASIS			r.PSIS			L.ASIS			L.PSIS			C7			R_Shoulder			L_Shoulder			R_Sternum			L_Sternum			R_humerus			R_elbow_med			R_elbow_lat			R_forearm			R_wrist_radius			R_wrist_ulna			L_humerus			L_elbow_med			L_elbow_lat			L_forearm			L_wrist_radius			L_wrist_ulna			R_HJC			L_HJC			R_HJC_reg			L_HJC_reg			
		X1	Y1	Z1	X2	Y2	Z2	X3	Y3	Z3	X4	Y4	Z4	X5	Y5	Z5	X6	Y6	Z6	X7	Y7	Z7	X8	Y8	Z8	X9	Y9	Z9	X10	Y10	Z10	X11	Y11	Z11	X12	Y12	Z12	X13	Y13	Z13	X14	Y14	Z14	X15	Y15	Z15	X16	Y16	Z16	X17	Y17	Z17	X18	Y18	Z18	X19	Y19	Z19	X20	Y20	Z20	X21	Y21	Z21	X22	Y22	Z22	X23	Y23	Z23	X24	Y24	Z24	X25	Y25	Z25	X26	Y26	Z26	X27	Y27	Z27	X28	Y28	Z28	X29	Y29	Z29	X30	Y30	Z30	X31	Y31	Z31	X32	Y32	Z32	X33	Y33	Z33	X34	Y34	Z34	X35	Y35	Z35	X36	Y36	Z36	X37	Y37	Z37	X38	Y38	Z38	X39	Y39	Z39	X40	Y40	Z40	X41	Y41	Z41	X42	Y42	Z42	X43	Y43	Z43	X44	Y44	Z44	X45	Y45	Z45	X46	Y46	Z46	X47	Y47	Z47	X48	Y48	Z48	X49	Y49	Z49	X50	Y50	Z50	X51	Y51	Z51	

1010	10.09000000	-174.41016	493.53869	-403.76294	-144.20260	393.45884	-397.34541	-278.89966	92.74510	-388.23494	-337.26326	56.52090	-439.09942	-163.53632	44.95089	-339.45681	-128.69658	78.55703	-389.49205	-182.30852	498.62790	-812.64604	-142.86425	406.35103	-812.82083	-266.65845	95.61075	-822.49909	-334.44549	49.48322	-768.67748	-166.00700	39.92305	-868.90901	-116.22937	72.76633	-822.33069	-174.66159	283.67390	-391.48500	-210.46703	411.54253	-365.81681	-246.53104	303.84764	-355.91020	-222.31737	439.26986	-843.11073	-253.38432	322.30528	-855.93843	-215.31750	772.44805	-412.39722	-171.20340	671.15216	-414.22143	-213.28243	626.74638	-381.10225	-318.39446	726.16729	-400.86120	-266.51367	622.22046	-399.88936	-201.61269	751.97177	-798.04242	-141.88635	624.87623	-794.50692	-298.76660	709.11847	-826.32013	-242.15286	588.07169	-817.93892	-199.97209	921.24025	-488.35709	-399.04666	994.61089	-557.43514	-217.41735	921.81891	-739.73114	-401.22897	995.55594	-654.00767	-290.02349	1429.95171	-606.47773	-199.10007	1391.85982	-446.57667	-203.69764	1395.95712	-757.80623	-167.44670	1350.97501	-585.28068	-169.98532	1354.03397	-629.73524	-131.65482	1281.40149	-389.40279	-141.34128	1063.15678	-393.05750	-132.19846	1085.20968	-330.64710	-46.33845	1063.25473	-313.90617	83.99822	957.88779	-347.29135	65.14344	944.78571	-302.44474	-136.27401	1289.01629	-826.68091	-109.13371	1080.02079	-814.50947	-100.74064	1108.43040	-887.86054	-25.62908	1091.93838	-904.49592	112.25886	977.63491	-898.72133	80.51024	965.11688	-939.71717	-301.10394	852.96641	-508.07405	-310.29932	853.65097	-697.41202	-292.03091	859.90044	-522.28355	-295.78749	861.52775	-688.53983	
1011	10.10000000	-176.50904	494.92153	-404.63094	-146.48707	394.65225	-397.89515	-278.67300	92.68852	-388.10667	-337.15433	56.63568	-439.19007	-163.32960	44.90911	-339.38463	-128.48983	78.07872	-389.47401	-184.37275	499.37413	-811.27010	-145.10548	407.48049	-811.69797	-266.66641	95.68057	-822.47284	-334.31568	49.40089	-768.63217	-165.97680	39.95524	-868.86196	-116.22852	72.76108	-822.25544	-176.07224	284.70277	-391.75475	-212.93009	412.23549	-366.50567	-248.34240	304.10803	-356.25886	-224.70469	439.84173	-841.94682	-254.96846	322.70726	-855.06461	-211.97868	774.46372	-412.86526	-169.97697	672.17329	-414.87340	-212.70110	628.57247	-381.76182	-315.88451	730.27248	-400.96359	-266.12901	625.13438	-400.52477	-198.84359	753.21042	-797.35453	-141.84919	625.04033	-793.37548	-296.59683	712.37869	-825.62533	-242.52024	590.13978	-817.02255	-195.84664	926.09346	-488.47140	-395.72852	997.46983	-557.54849	-213.35610	926.53936	-740.03002	-397.89269	998.37030	-653.78654	-291.44414	1434.42837	-606.33023	-201.02140	1397.24125	-446.38373	-205.01343	1401.12250	-758.08598	-168.22523	1356.39262	-585.17564	-170.92996	1359.25801	-629.49806	-134.46547	1285.45634	-388.93167	-146.90225	1067.22350	-394.04359	-138.21002	1088.99216	-331.36993	-53.02667	1065.30086	-313.64439	75.29429	956.98091	-345.26397	55.37868	944.19274	-300.73857	-138.68144	1293.12635	-826.85529	-113.77583	1083.82052	-813.69718	-105.53988	1111.70608	-887.24561	-31.51000	1093.41048	-904.57877	103.56814	975.21606	-900.71275	70.95783	963.59214	-940.98034	-296.24751	856.78277	-508.18841	-305.57884	857.43716	-697.51988	-287.35716	863.81720	-522.43100	-291.09869	865.37326	-688.81239	
1012	10.11000000	-178.75657	495.72634	-405.38896	-148.76018	395.81560	-398.58649	-278.53741	92.60754	-388.06505	-337.05889	56.74646	-439.27636	-163.32355	44.65949	-339.73472	-128.30829	77.68239	-389.45708	-186.45447	500.05919	-809.99601	-147.35040	408.50982	-810.54504	-266.67137	95.76112	-822.46476	-334.40546	49.49922	-768.63956	-165.93567	39.98616	-868.81018	-116.21167	72.73662	-822.18975	-177.38877	285.61662	-391.99691	-215.43034	412.87688	-367.17808	-250.03893	304.44119	-356.62631	-227.15240	440.39536	-840.74002	-256.62830	323.01906	-854.07575	-208.64288	776.19932	-413.43590	-168.86434	673.07454	-415.47777	-212.21526	630.32127	-382.43396	-313.40271	734.10275	-401.29891	-265.77178	628.00178	-401.10836	-196.18187	754.46142	-796.86344	-141.66398	624.99577	-792.08952	-294.40595	715.39527	-824.99484	-242.83197	592.10014	-816.11851	-191.83326	930.67343	-488.27333	-392.36347	1000.05946	-557.70935	-209.26197	931.03085	-740.39023	-394.60264	1000.85611	-653.62437	-292.75334	1438.52154	-606.24623	-202.78972	1402.22077	-446.28669	-206.28787	1405.91899	-758.33533	-168.90339	1361.46235	-585.09130	-171.74065	1364.21727	-629.44581	-137.12235	1289.35729	-388.46470	-152.42821	1071.27526	-394.97147	-144.16325	1092.59573	-332.00068	-59.74934	1066.93568	-313.54229	66.52832	955.89100	-343.48632	45.53965	943.32820	-299.46822	-140.97289	1296.81240	-827.00740	-118.22574	1087.28931	-812.96548	-110.27510	1114.72834	-886.76494	-37.64100	1094.54081	-904.33382	94.82751	972.73557	-902.35699	61.48689	962.03659	-942.17938	-291.46632	860.33728	-508.26385	-300.80316	860.95856	-697.59518	-282.68107	867.48609	-522.21516	-286.57397	868.87049	-688.95844	
1013	10.12000000	-181.22530	496.30015	-406.16505	-151.18676	396.99934	-399.15926	-278.47019	92.58085	-388.12647	-336.99285	56.82896	-439.28587	-163.56100	43.83733	-340.44670	-128.16478	77.32920	-389.44980	-188.60164	500.69867	-808.70631	-149.62674	409.49532	-809.42191	-266.62551	95.83220	-822.45022	-334.49795	49.58742	-768.61400	-165.88801	39.96852	-868.76019	-116.16298	72.61242	-822.13982	-178.57202	286.39892	-392.33363	-218.05646	413.55596	-367.71840	-251.60918	304.92366	-357.19501	-229.67968	440.92290	-839.53226	-258.39831	323.35208	-853.10306	-205.41463	777.68582	-414.06940	-167.76546	674.00464	-416.16769	-211.88442	632.03383	-382.96587	-310.98476	737.70430	-401.87101	-265.46032	630.76559	-401.67220	-193.43304	755.50782	-796.25011	-141.31104	624.76939	-790.76300	-292.20209	718.20711	-824.47104	-243.15970	593.89828	-815.13381	-187.88398	934.97913	-487.98380	-388.98610	1002.35579	-557.87479	-205.21849	935.42192	-740.94246	-391.37068	1003.17053	-653.78779	-293.96600	1442.22205	-606.26612	-204.37693	1406.76656	-446.14108	-207.48207	1410.38734	-758.54858	-169.51895	1366.18269	-585.00207	-172.44632	1368.82640	-629.42636	-139.72792	1292.96460	-387.97862	-157.91942	1075.26022	-395.71080	-149.94779	1096.01694	-332.45157	-66.43502	1068.17998	-313.46847	57.67980	954.56454	-341.96414	35.80513	942.18744	-298.56848	-143.15668	1300.10262	-827.22018	-122.47261	1090.48453	-812.00372	-114.94863	1117.40159	-886.22767	-43.43264	1095.48862	-904.18309	86.06521	970.12693	-903.60092	52.09219	960.47960	-943.40839	-286.75673	863.63148	-508.50969	-296.01938	864.33560	-697.84431	-277.99094	870.75019	-521.98360	-282.14994	872.17141	-689.27049	
